<svg width="100%" height="100%" viewBox="0 0 1025 1025" version="1.1" xmlns="http://www.w3.org/2000/svg" xmlns:xlink="http://www.w3.org/1999/xlink" xml:space="preserve" xmlns:serif="http://www.serif.com/" style=" fill-rule: evenodd; clip-rule: evenodd; stroke-linejoin: round; stroke-miterlimit: 2; " ><g transform="matrix(1,0,0,1,-2453,-955)"><g id="esdiag" transform="matrix(1,0,0,1,2453.39,955.221)" ><rect x="0" y="0" width="1024" height="1024" style="fill: none"/><g transform="matrix(1,0,0,1,-0.689672,-24.7765)" ><g transform="matrix(1,0,0,1,-2453.39,-1186.63)" ><path d="M2879.95,1933.41C2902.34,1896.54 2930.32,1863.43 2962.68,1835.27C2995.52,1863.85 3023.82,1897.49 3046.37,1934.98L3098.96,2180.34C3056.43,2192.12 3011.64,2198.41 2965.39,2198.41C2917.32,2198.41 2870.82,2191.61 2826.78,2178.92L2879.95,1933.41Z" style="fill: rgb(240, 78, 152)"/></g><g transform="matrix(-0.5,-0.866025,0.866025,-0.5,523.822,3929.2)" ><path d="M2879.95,1933.41C2902.34,1896.54 2930.32,1863.43 2962.68,1835.27C2995.52,1863.85 3023.82,1897.49 3046.37,1934.98L3098.96,2180.34C3056.43,2192.12 3011.64,2198.41 2965.39,2198.41C2917.32,2198.41 2870.82,2191.61 2826.78,2178.92L2879.95,1933.41Z" style="fill: rgb(240, 78, 152)"/></g><g transform="matrix(-0.5,0.866025,-0.866025,-0.5,3465.66,-1207.06)" ><path d="M2879.95,1933.41C2902.34,1896.54 2930.32,1863.43 2962.68,1835.27C2995.52,1863.85 3023.82,1897.49 3046.37,1934.98L3098.96,2180.34C3056.43,2192.12 3011.64,2198.41 2965.39,2198.41C2917.32,2198.41 2870.82,2191.61 2826.78,2178.92L2879.95,1933.41Z" style="fill: rgb(240, 78, 152)"/></g><g id="Outside" transform="matrix(1,0,0,1,-2453.39,-1186.63)" ><path d="M3413.04,1652.19C3414.59,1667.4 3415.39,1682.81 3415.39,1698.41C3415.39,1882.92 3304.1,2041.64 3145.06,2111.06C3145.06,2111.06 3116.81,2003.85 3101.92,1947.35C3096.82,1928.01 3103.74,1907.5 3119.51,1895.19C3168.14,1857.05 3202.3,1801.28 3212.34,1737.55C3215.37,1718.06 3229.57,1702.18 3248.6,1697C3304.95,1681.64 3413.04,1652.19 3413.04,1652.19ZM2518.22,1647.73C2518.22,1647.73 2625.08,1676.84 2681.47,1692.2C2700.78,1697.46 2715.1,1713.74 2717.85,1733.57C2726.87,1797.59 2760.19,1853.86 2808.16,1892.73C2823.5,1905.1 2830.14,1925.33 2825.12,1944.38C2810.25,2000.86 2781.68,2109.27 2781.68,2109.27C2624.79,2038.95 2515.39,1881.36 2515.39,1698.41C2515.39,1681.27 2516.35,1664.36 2518.22,1647.73ZM2701.52,1333.95C2775.69,1280.14 2866.86,1248.41 2965.39,1248.41C3065.55,1248.41 3158.12,1281.21 3232.9,1336.62C3232.9,1336.62 3154.3,1414.57 3112.82,1455.7C3098.67,1469.74 3077.54,1474.03 3059.04,1466.62C3030.12,1454.86 2998.5,1448.41 2965.39,1448.41C2933.71,1448.41 2903.4,1454.32 2875.5,1465.08C2857.17,1472.08 2836.44,1467.69 2822.51,1453.88C2781.03,1412.8 2701.52,1333.95 2701.52,1333.95Z" style="fill: rgb(2, 188, 183)"/><path d="M3413.05,1652.19C3413.05,1652.19 3413.05,1652.19 3413.05,1652.18C3413.04,1652.18 3413.04,1652.18 3413.03,1652.18C3413.03,1652.18 3304.95,1681.63 3248.59,1696.99C3229.56,1702.17 3215.36,1718.06 3212.32,1737.55C3202.29,1801.28 3168.13,1857.04 3119.5,1895.18C3103.73,1907.49 3096.81,1928.01 3101.91,1947.35C3116.8,2003.86 3145.04,2111.06 3145.04,2111.06C3145.04,2111.06 3145.05,2111.07 3145.05,2111.07C3145.05,2111.07 3145.06,2111.07 3145.06,2111.07C3304.11,2041.65 3415.4,1882.92 3415.4,1698.41C3415.4,1682.81 3414.61,1667.4 3413.05,1652.19ZM3413.04,1652.19C3414.59,1667.4 3415.39,1682.81 3415.39,1698.41C3415.39,1882.92 3304.1,2041.64 3145.06,2111.06C3145.06,2111.06 3116.81,2003.85 3101.92,1947.35C3096.82,1928.01 3103.74,1907.5 3119.51,1895.19C3168.14,1857.05 3202.3,1801.28 3212.34,1737.55C3215.37,1718.06 3229.57,1702.18 3248.6,1697C3304.95,1681.64 3413.04,1652.19 3413.04,1652.19ZM2518.22,1647.72C2518.22,1647.71 2518.21,1647.71 2518.21,1647.72C2518.21,1647.72 2518.2,1647.72 2518.2,1647.73C2516.34,1664.36 2515.38,1681.27 2515.38,1698.41C2515.38,1881.36 2624.78,2038.96 2781.68,2109.28C2781.68,2109.28 2781.69,2109.28 2781.69,2109.28C2781.69,2109.28 2781.7,2109.28 2781.7,2109.27C2781.7,2109.27 2810.26,2000.87 2825.13,1944.38C2830.15,1925.33 2823.51,1905.09 2808.16,1892.72C2760.2,1853.85 2726.88,1797.59 2717.87,1733.57C2715.11,1713.73 2700.79,1697.45 2681.47,1692.19C2625.08,1676.83 2518.22,1647.72 2518.22,1647.72ZM2518.22,1647.73C2518.22,1647.73 2625.08,1676.84 2681.47,1692.2C2700.78,1697.46 2715.1,1713.74 2717.85,1733.57C2726.87,1797.59 2760.19,1853.86 2808.16,1892.73C2823.5,1905.1 2830.14,1925.33 2825.12,1944.38C2810.25,2000.86 2781.68,2109.27 2781.68,2109.27C2624.79,2038.95 2515.39,1881.36 2515.39,1698.41C2515.39,1681.27 2516.35,1664.36 2518.22,1647.73ZM2701.52,1333.94C2701.51,1333.94 2701.51,1333.95 2701.51,1333.95C2701.51,1333.95 2701.51,1333.96 2701.51,1333.96C2701.51,1333.96 2781.02,1412.81 2822.5,1453.89C2836.44,1467.71 2857.17,1472.09 2875.51,1465.1C2875.51,1465.1 2875.51,1465.1 2875.51,1465.1C2903.4,1454.33 2933.71,1448.42 2965.39,1448.42C2998.5,1448.42 3030.12,1454.88 3059.03,1466.63C3059.03,1466.63 3059.03,1466.63 3059.03,1466.63C3077.54,1474.04 3098.68,1469.75 3112.83,1455.71C3154.31,1414.58 3232.91,1336.63 3232.91,1336.63C3232.91,1336.63 3232.91,1336.63 3232.91,1336.62C3232.91,1336.62 3232.91,1336.62 3232.91,1336.61C3158.12,1281.2 3065.56,1248.4 2965.39,1248.4C2866.86,1248.4 2775.68,1280.13 2701.52,1333.94ZM2701.52,1333.95C2775.69,1280.14 2866.86,1248.41 2965.39,1248.41C3065.55,1248.41 3158.12,1281.21 3232.9,1336.62C3232.9,1336.62 3154.3,1414.57 3112.82,1455.7C3098.67,1469.74 3077.54,1474.03 3059.04,1466.62C3030.12,1454.86 2998.5,1448.41 2965.39,1448.41C2933.71,1448.41 2903.4,1454.32 2875.5,1465.08C2857.17,1472.08 2836.44,1467.69 2822.51,1453.88C2781.03,1412.8 2701.52,1333.95 2701.52,1333.95Z" style="fill: rgb(52, 55, 65)"/></g><g transform="matrix(1.55533,0,0,1.42662,-4073.63,-1553.11)" ><ellipse cx="2948.78" cy="1447.56" rx="56.258" ry="61.334" style="fill: rgb(245, 247, 250)"/></g></g></g></g></svg>
